<svg width="211" height="211" viewBox="0 0 211 211" fill="none" xmlns="http://www.w3.org/2000/svg">
<path d="M158.147 157.853C158.147 186.929 134.576 210.5 105.5 210.5C76.4241 210.5 52.8534 186.929 52.8534 157.853C52.8534 128.777 76.4241 105.207 105.5 105.207C134.576 105.207 158.147 128.777 158.147 157.853Z" fill="#270F6B" stroke="black"/>
<path d="M210.5 105.5C210.5 134.583 187.277 158.147 158.647 158.147C130.016 158.147 106.793 134.583 106.793 105.5C106.793 76.417 130.016 52.8534 158.647 52.8534C187.277 52.8534 210.5 76.417 210.5 105.5Z" fill="#4A2C9F" stroke="black"/>
<path d="M158.147 52.3534C158.147 80.9842 134.583 104.207 105.5 104.207C76.417 104.207 52.8534 80.9842 52.8534 52.3534C52.8534 23.7226 76.417 0.5 105.5 0.5C134.583 0.5 158.147 23.7226 158.147 52.3534Z" fill="#5E3EB8" stroke="black"/>
<path d="M105.793 105.5C105.793 134.576 82.2225 158.147 53.1466 158.147C24.0707 158.147 0.5 134.576 0.5 105.5C0.5 76.4241 24.0707 52.8534 53.1466 52.8534C82.2225 52.8534 105.793 76.4241 105.793 105.5Z" fill="#1F0A58" stroke="black"/>
</svg>
